M48
; DRILL file {KiCad (5.1.0)-1} date 23.04.2020 0:51:17
; FORMAT={-:-/ absolute / inch / decimal}
; #@! TF.CreationDate,2020-04-23T00:51:17+08:00
; #@! TF.GenerationSoftware,Kicad,Pcbnew,(5.1.0)-1
FMAT,2
INCH
T1C0.0118
T2C0.0157
T3C0.0236
T4C0.0315
T5C0.0354
T6C0.0394
T7C0.0400
T8C0.0472
T9C0.0512
T10C0.0630
T11C0.1181
T12C0.1280
%
G90
G05
T1
X9.5059Y-5.2043
X9.5874Y-6.6425
X9.6287Y-6.7157
X9.6339Y-5.2598
X9.674Y-6.6339
X9.6845Y-5.1029
X9.687Y-5.2598
X9.7206Y-6.5909
X9.73Y-6.52
X9.7357Y-5.1029
X9.7402Y-5.2598
X10.0705Y-5.3223
X10.1368Y-5.1309
X10.1438Y-5.0962
X10.2066Y-5.0933
X10.2342Y-5.4793
X10.235Y-5.4439
X10.326Y-5.8945
X10.3307Y-4.8937
X10.3543Y-6.0843
X10.3559Y-5.8638
X10.36Y-5.41
X10.3661Y-5.0748
X10.3661Y-5.1299
X10.374Y-5.1693
X10.3834Y-5.3265
X10.3843Y-6.0577
X10.3858Y-5.2205
X10.3886Y-5.8925
X10.389Y-5.2915
X10.3992Y-5.599
X10.4Y-5.6354
X10.4016Y-4.9724
X10.4036Y-5.4212
X10.4205Y-5.8661
X10.4488Y-5.8945
X10.4508Y-6.0079
X10.46Y-5.44
X10.4783Y-5.8736
X10.48Y-6.04
X10.4882Y-4.9646
X10.5055Y-5.8492
X10.5069Y-5.8966
X10.5118Y-5.374
X10.5669Y-5.8705
X10.5846Y-5.7034
X10.6039Y-5.8874
X10.6719Y-5.778
X10.6811Y-5.7295
X10.6953Y-5.6894
X10.7247Y-4.7029
X10.8346Y-5.4291
X10.8346Y-5.563
X10.8543Y-4.9961
X10.9173Y-4.8858
X10.9608Y-4.8996
X11.02Y-5.01
X11.1846Y-5.2763
X11.2012Y-5.2451
X11.22Y-4.86
X11.4177Y-4.1063
X11.42Y-4.21
X11.4409Y-5.1925
X11.4477Y-5.2379
X11.4501Y-5.2751
X11.4524Y-4.0657
X11.5756Y-5.5024
X11.5959Y-5.4673
X11.6043Y-3.126
X11.6205Y-5.5028
X11.6437Y-3.126
X11.6909Y-3.126
X11.6909Y-2.7795
X11.78Y-3.13
X11.7815Y-2.9173
X11.84Y-4.88
X11.8563Y-3.126
X11.87Y-4.83
X11.8758Y-3.27
X11.8758Y-4.28
X11.8799Y-2.7795
X11.8995Y-3.1221
X11.91Y-4.41
X11.94Y-3.15
X11.95Y-4.4
X12.0787Y-4.7165
X12.1035Y-7.38
X12.1035Y-7.42
X12.1114Y-6.1266
X12.1638Y-6.1047
X12.3506Y-3.2982
X12.3512Y-4.7165
X12.4343Y-7.1047
X12.5114Y-7.1063
T2
X9.1575Y-7.0079
X9.2244Y-7.6929
X9.2283Y-7.4921
X9.2441Y-7.0118
X9.2835Y-6.8386
X9.3391Y-6.8445
X9.3858Y-7.6772
X9.3898Y-6.8386
X9.4606Y-7.6811
X9.4882Y-7.0
X9.5Y-7.9567
X9.529Y-6.966
X9.5369Y-7.5458
X9.5394Y-7.626
X9.6299Y-6.8386
X9.64Y-7.4939
X9.6457Y-7.0118
X9.6488Y-3.4283
X9.6587Y-2.8555
X9.6732Y-6.8386
X9.6929Y-7.0118
X9.6929Y-7.4961
X9.7008Y-7.6772
X9.7157Y-3.4244
X9.7165Y-6.8386
X9.7628Y-2.7589
X9.7756Y-7.6929
X9.7874Y-6.8386
X9.8128Y-2.7611
X9.84Y-7.6752
X9.8654Y-3.5976
X9.8772Y-2.7433
X9.89Y-7.6774
X9.9362Y-3.5976
X9.937Y-7.0118
X9.94Y-3.73
X9.952Y-2.7591
X9.9598Y-2.9402
X9.9598Y-3.4244
X9.9795Y-3.5976
X9.9941Y-7.5807
X10.0039Y-7.0079
X10.0071Y-3.4244
X10.0128Y-2.9423
X10.0228Y-3.5976
X10.06Y-3.92
X10.065Y-6.9823
X10.08Y-3.66
X10.1Y-3.89
X10.1134Y-2.8102
X10.1158Y-2.8905
X10.1237Y-3.4702
X10.14Y-5.23
X10.1528Y-2.4795
X10.16Y-3.79
X10.1646Y-3.4362
X10.17Y-3.89
X10.1921Y-2.7551
X10.2063Y-4.7626
X10.22Y-3.79
X10.263Y-3.5976
X10.2669Y-2.7591
X10.3142Y-3.5937
X10.32Y-5.57
X10.3693Y-3.5976
X10.4087Y-3.4244
X10.4244Y-2.9441
X10.4283Y-2.7433
X10.4677Y-2.578
X10.4953Y-3.4283
X10.5009Y-6.1039
X10.5087Y-2.9437
X10.5185Y-6.0612
X10.5237Y-4.32
X10.5298Y-4.2498
X10.53Y-3.02
X10.55Y-4.18
X10.5579Y-2.913
X10.57Y-4.58
X10.5758Y-4.6583
X10.5776Y-3.4988
X10.5794Y-4.7001
X10.5802Y-4.1298
X10.6126Y-6.0323
X10.6142Y-7.0079
X10.6343Y-2.9323
X10.6417Y-3.5024
X10.6433Y-3.5535
X10.6594Y-6.026
X10.6811Y-7.6929
X10.685Y-7.4921
X10.7008Y-7.0118
X10.7402Y-6.8386
X10.7953Y-6.8425
X10.8012Y-4.128
X10.8425Y-7.6772
X10.8465Y-6.8386
X10.8764Y-3.6709
X10.8772Y-3.0044
X10.8854Y-2.9291
X10.8866Y-3.5425
X10.9114Y-4.235
X10.9147Y-6.8337
X10.9173Y-7.6811
X10.9195Y-4.1175
X10.9307Y-3.002
X10.9362Y-3.5008
X10.9449Y-7.0
X10.9567Y-7.9567
X10.9795Y-4.1807
X10.9857Y-6.966
X10.9936Y-7.5458
X10.9961Y-7.626
X11.0366Y-3.6272
X11.0442Y-3.5287
X11.0543Y-2.9937
X11.0866Y-6.8386
X11.0961Y-2.8898
X11.0967Y-7.4939
X11.1024Y-7.0118
X11.1299Y-6.8386
X11.1496Y-7.0118
X11.1496Y-7.4961
X11.1575Y-7.6772
X11.1732Y-6.8386
X11.1787Y-3.0016
X11.21Y-4.77
X11.2323Y-7.6929
X11.2398Y-2.9398
X11.2441Y-6.8386
X11.28Y-4.54
X11.289Y-3.0043
X11.2967Y-7.6752
X11.2972Y-3.5161
X11.3409Y-2.9799
X11.3409Y-3.5366
X11.3467Y-7.6774
X11.3937Y-7.0118
X11.4508Y-7.5807
X11.4606Y-7.0079
X11.5343Y-6.9669
X11.5413Y-3.1398
X11.5579Y-3.3154
X11.5744Y-4.2398
X11.9118Y-6.252
X11.9702Y-6.4298
X11.9702Y-6.4703
X12.05Y-6.3276
X12.1083Y-6.2517
X12.1083Y-6.5817
X12.1185Y-3.9059
X12.2673Y-5.2098
X12.3051Y-3.302
X12.3114Y-4.7602
X12.3516Y-5.2106
X12.3638Y-3.7102
X12.422Y-2.8516
X12.43Y-7.37
X12.4302Y-5.9494
X12.4315Y-4.2705
X12.4421Y-5.7614
X12.45Y-3.6244
X12.4596Y-4.1978
X12.465Y-7.5677
X12.4673Y-2.7752
X12.4724Y-3.1522
X12.4724Y-4.5902
X12.48Y-7.34
X12.4802Y-5.9194
X12.4843Y-6.152
X12.4939Y-3.3687
X12.4939Y-4.7892
X12.4985Y-3.0444
X12.5Y-7.62
X12.5002Y-6.1994
X12.5038Y-4.4702
X12.5075Y-5.6961
X12.5394Y-2.9654
X12.5394Y-4.3858
X12.54Y-7.22
X12.5402Y-5.7994
X12.5433Y-2.9102
X12.5433Y-4.3307
X12.6057Y-3.8624
X12.6179Y-5.2656
X12.6386Y-3.9882
X12.6402Y-3.8969
X12.6496Y-5.3051
X12.6524Y-5.4016
X12.6909Y-3.9882
X12.6961Y-5.4016
X12.8307Y-2.8551
X12.8307Y-4.2756
X12.91Y-7.68
X12.9102Y-6.2594
X12.9134Y-2.9417
X12.9134Y-4.3622
X12.9415Y-7.2015
X12.9417Y-5.781
X12.9606Y-2.9575
X12.9606Y-4.378
X12.97Y-7.27
X12.97Y-7.42
X12.9702Y-5.8494
X12.9702Y-5.9994
X12.9724Y-3.1543
X12.9724Y-4.5748
X12.9878Y-3.3272
X12.9892Y-4.749
X13.02Y-7.2
X13.0202Y-5.7794
X13.0276Y-2.9417
X13.0276Y-4.3622
X13.033Y-7.2475
X13.0332Y-5.8269
X13.1236Y-4.3756
X13.1246Y-2.9561
X13.16Y-7.27
X13.1602Y-5.8494
X13.1693Y-3.0008
X13.1732Y-3.2134
X13.1732Y-4.6339
X13.1843Y-7.1843
X13.1844Y-5.7637
X13.1969Y-3.1661
X13.1969Y-4.5866
X13.2846Y-5.7362
X13.29Y-7.86
X13.2902Y-6.4394
X13.2961Y-7.1528
X13.298Y-6.0094
X13.2984Y-7.4461
X13.3622Y-3.2449
X13.3622Y-4.6654
X13.3677Y-3.0504
X13.387Y-4.4469
X13.3921Y-5.8713
X13.3941Y-7.2606
X13.3977Y-3.0759
X13.3996Y-4.4858
X13.4335Y-3.0429
X13.439Y-4.4543
X13.4598Y-5.9386
X13.4665Y-7.3661
X13.52Y-7.56
X13.5202Y-6.1394
X13.689Y-3.3906
X13.689Y-4.811
X13.8622Y-3.3866
X13.8622Y-4.8071
T3
X9.4629Y-4.21
X9.89Y-4.32
T4
X12.2102Y-3.0283
X12.4102Y-3.0283
X12.2102Y-5.8694
X12.4102Y-5.8694
X9.9646Y-6.6772
X9.9646Y-6.8772
X9.6882Y-3.5591
X9.6882Y-3.7591
X9.5535Y-5.64
X9.5535Y-5.84
X13.0602Y-6.1094
X13.0602Y-6.2094
X13.0602Y-6.3094
X13.3602Y-6.1094
X13.3602Y-6.2094
X13.3602Y-6.3094
X11.015Y-5.7055
X11.015Y-5.8055
X11.015Y-5.9055
X11.315Y-5.7055
X11.315Y-5.8055
X11.315Y-5.9055
X13.0602Y-3.3197
X13.0602Y-3.4197
X13.0602Y-3.5197
X13.3602Y-3.3197
X13.3602Y-3.4197
X13.3602Y-3.5197
X13.06Y-7.53
X13.06Y-7.63
X13.06Y-7.73
X13.36Y-7.53
X13.36Y-7.63
X13.36Y-7.73
X11.4213Y-6.6772
X11.4213Y-6.8772
X12.2102Y-4.4488
X12.4102Y-4.4488
X13.0602Y-4.7402
X13.0602Y-4.8402
X13.0602Y-4.9402
X13.3602Y-4.7402
X13.3602Y-4.8402
X13.3602Y-4.9402
X12.21Y-7.29
X12.41Y-7.29
T5
X13.51Y-7.0
X13.51Y-7.1
X13.51Y-7.2
X13.51Y-7.3
X13.61Y-7.05
X13.61Y-7.15
X13.61Y-7.25
X13.61Y-7.35
X13.5102Y-2.7385
X13.5102Y-2.8385
X13.5102Y-2.9385
X13.5102Y-3.0385
X13.6102Y-2.7885
X13.6102Y-2.8885
X13.6102Y-2.9885
X13.6102Y-3.0885
X13.5102Y-5.5794
X13.5102Y-5.6794
X13.5102Y-5.7794
X13.5102Y-5.8794
X13.6102Y-5.6294
X13.6102Y-5.7294
X13.6102Y-5.8294
X13.6102Y-5.9294
X13.5102Y-4.1589
X13.5102Y-4.2589
X13.5102Y-4.3589
X13.5102Y-4.4589
X13.6102Y-4.2089
X13.6102Y-4.3089
X13.6102Y-4.4089
X13.6102Y-4.5089
T6
X12.18Y-7.61
X12.3769Y-7.61
X12.1929Y-2.6998
X12.2929Y-2.6998
X12.3929Y-2.6998
X12.9929Y-2.6998
X13.0929Y-2.6998
X13.1929Y-2.6998
X13.2929Y-2.6998
X9.389Y-2.5047
X9.389Y-2.6047
X9.389Y-2.7047
X9.389Y-2.8047
X9.389Y-3.4047
X9.389Y-3.5047
X9.389Y-3.6047
X11.7205Y-6.8315
X11.7205Y-6.9315
X11.7205Y-7.0315
X11.7205Y-7.6315
X11.7205Y-7.7315
X11.7205Y-7.8315
X11.7205Y-7.9315
X10.1378Y-6.5236
X10.3346Y-6.5236
X9.3181Y-3.9126
X9.515Y-3.9126
X11.4933Y-3.4654
X11.4933Y-3.5654
X11.4933Y-3.6654
X11.4933Y-3.7654
X11.4933Y-3.8654
X10.2638Y-6.8315
X10.2638Y-6.9315
X10.2638Y-7.0315
X10.2638Y-7.6315
X10.2638Y-7.7315
X10.2638Y-7.8315
X10.2638Y-7.9315
X11.5945Y-6.5236
X11.7913Y-6.5236
X12.19Y-6.96
X12.29Y-6.96
X12.39Y-6.96
X12.99Y-6.96
X13.09Y-6.96
X13.19Y-6.96
X13.29Y-6.96
X9.2094Y-4.7449
X9.2094Y-4.8449
X9.2094Y-4.9449
X9.2094Y-5.0449
X9.2094Y-5.6449
X9.2094Y-5.7449
X9.2094Y-5.8449
X12.1929Y-4.1203
X12.2929Y-4.1203
X12.3929Y-4.1203
X12.9929Y-4.1203
X13.0929Y-4.1203
X13.1929Y-4.1203
X13.2929Y-4.1203
X12.1802Y-6.1894
X12.377Y-6.1894
X12.1802Y-4.8189
X12.377Y-4.8189
X12.1802Y-3.3984
X12.377Y-3.3984
X12.1902Y-5.5394
X12.2902Y-5.5394
X12.3902Y-5.5394
X12.9902Y-5.5394
X13.0902Y-5.5394
X13.1902Y-5.5394
X13.2902Y-5.5394
X9.63Y-6.1642
X9.63Y-6.361
T7
X13.64Y-7.72
X13.64Y-7.82
X13.74Y-7.72
X13.74Y-7.82
X13.84Y-7.72
X13.84Y-7.82
X11.1146Y-2.5878
X11.1146Y-2.6878
X11.1146Y-2.7878
X11.2146Y-2.5878
X11.2146Y-2.6878
X11.2146Y-2.7878
X11.17Y-4.05
X11.17Y-4.15
X11.17Y-4.25
X11.17Y-4.35
X11.17Y-4.45
X11.27Y-4.05
X11.27Y-4.15
X11.27Y-4.25
X11.27Y-4.35
X11.27Y-4.45
X13.6402Y-6.2994
X13.6402Y-6.3994
X13.7402Y-6.2994
X13.7402Y-6.3994
X13.8402Y-6.2994
X13.8402Y-6.3994
X9.913Y-5.6484
X9.913Y-5.7484
X9.913Y-5.8484
X10.013Y-5.6484
X10.013Y-5.7484
X10.013Y-5.8484
X11.711Y-4.9898
X11.711Y-5.0898
X11.711Y-5.1898
X11.711Y-5.2898
X11.711Y-5.3898
X11.811Y-4.9898
X11.811Y-5.0898
X11.811Y-5.1898
X11.811Y-5.2898
X11.811Y-5.3898
X11.711Y-4.3472
X11.711Y-4.4472
X11.711Y-4.5472
X11.811Y-4.3472
X11.811Y-4.4472
X11.811Y-4.5472
X10.28Y-4.32
X10.28Y-4.42
X10.28Y-4.52
X10.38Y-4.32
X10.38Y-4.42
X10.38Y-4.52
X9.3504Y-7.7976
X9.3504Y-7.8976
X9.4504Y-7.7976
X9.4504Y-7.8976
X9.5504Y-7.7976
X9.5504Y-7.8976
X9.6504Y-7.7976
X9.6504Y-7.8976
X9.7504Y-7.7976
X9.7504Y-7.8976
X9.9024Y-2.5386
X9.9024Y-2.6386
X10.0024Y-2.5386
X10.0024Y-2.6386
X10.1024Y-2.5386
X10.1024Y-2.6386
X10.2024Y-2.5386
X10.2024Y-2.6386
X10.3024Y-2.5386
X10.3024Y-2.6386
X10.8071Y-7.7976
X10.8071Y-7.8976
X10.9071Y-7.7976
X10.9071Y-7.8976
X11.0071Y-7.7976
X11.0071Y-7.8976
X11.1071Y-7.7976
X11.1071Y-7.8976
X11.2071Y-7.7976
X11.2071Y-7.8976
X10.7087Y-2.5878
X10.7087Y-2.6878
X10.7087Y-2.7878
X10.8087Y-2.5878
X10.8087Y-2.6878
X10.8087Y-2.7878
T8
X9.5988Y-4.6236
X9.8941Y-4.6236
T9
X9.2366Y-6.1224
X9.2366Y-6.2602
X9.2366Y-6.398
X9.2366Y-6.5358
T10
X13.9803Y-4.028
X13.9803Y-4.6398
X13.9801Y-6.8691
X13.9801Y-7.4809
X13.9803Y-2.6076
X13.9803Y-3.2194
X13.9803Y-5.4485
X13.9803Y-6.0603
T11
X9.0764Y-6.7669
X9.0764Y-7.5732
X9.0768Y-3.2252
X10.5339Y-3.7657
X11.7193Y-5.8453
X13.7295Y-2.3929
X13.7295Y-3.711
X13.7299Y-5.1197
X13.7303Y-6.6555
T12
X13.86Y-6.95
X13.86Y-7.4
X13.8602Y-2.6885
X13.8602Y-3.1385
X13.8602Y-5.5294
X13.8602Y-5.9794
X13.8602Y-4.1089
X13.8602Y-4.5589
T0
M30
